<?xml version="1.0" encoding="UTF-8"?>
<svg version="1.1" xmlns="http://www.w3.org/2000/svg" width="294" height="238">
<path d="M0 0 C1.39953009 -0.00407751 2.79905696 -0.00942593 4.19857788 -0.01593018 C7.9589737 -0.02946967 11.71911935 -0.02436123 15.47951889 -0.01479292 C19.43988401 -0.0071262 23.40022962 -0.01426119 27.3605957 -0.01895142 C34.00768832 -0.02438876 40.65468049 -0.01727076 47.30175781 -0.00292969 C54.95501792 0.01339295 62.60803815 0.008103 70.26129246 -0.0084089 C76.8663947 -0.02208173 83.47142529 -0.02391528 90.07653713 -0.0160929 C94.00651918 -0.01144805 97.93638897 -0.01070257 101.86636353 -0.02070236 C105.56346325 -0.02945479 109.26025776 -0.02320163 112.95732498 -0.00601959 C114.93829189 -0.00024807 116.91928504 -0.00899906 118.90023804 -0.0184021 C138.4090746 0.11790872 154.56005622 6.55525862 168.51171875 20.38818359 C174.58096516 27.29908205 183.51171875 37.74466056 183.51171875 47.38818359 C184.17171875 47.71818359 184.83171875 48.04818359 185.51171875 48.38818359 C190.74631422 69.13269157 191.04791575 101.42302899 180.51171875 120.38818359 C179.97160156 121.37689453 179.43148437 122.36560547 178.875 123.38427734 C169.22794689 140.4811155 154.46212618 152.22493976 135.5657196 157.85493469 C125.33008974 160.5122551 115.49418087 160.52958614 105.01730537 160.26523018 C100.32786711 160.15948454 95.63763896 160.13032021 90.94726562 160.08935547 C85.03312735 160.03607629 79.12267316 159.96142024 73.21069336 159.78833008 C47.57824384 159.06872622 29.40844272 160.67036066 8.48722839 176.24183655 C3.69167352 179.70105069 -1.42264801 182.58153711 -6.55078125 185.51318359 C-8.30898315 186.55068704 -10.06576989 187.59059754 -11.8203125 188.63427734 C-16.67083932 191.50303709 -21.54719902 194.32499359 -26.44140625 197.11865234 C-28.6050306 198.35279407 -28.6050306 198.35279407 -30.48828125 200.38818359 C-31.47828125 199.39818359 -31.47828125 199.39818359 -32.48828125 198.38818359 C-31.89047852 197.54562012 -31.29267578 196.70305664 -30.67675781 195.83496094 C-28.44095576 192.475358 -26.95118704 189.000357 -25.47265625 185.23974609 C-25.2119635 184.58235443 -24.95127075 183.92496277 -24.68267822 183.24765015 C-23.86129667 181.17202013 -23.0496524 179.09274425 -22.23828125 177.01318359 C-21.67902795 175.5949613 -21.119138 174.17698989 -20.55859375 172.75927734 C-19.19445559 169.30511374 -17.83901573 165.8476141 -16.48828125 162.38818359 C-17.14054687 162.26411133 -17.7928125 162.14003906 -18.46484375 162.01220703 C-38.03426175 158.20944771 -53.18021912 149.97205112 -64.734375 133.28271484 C-71.51896929 122.0858677 -73.79120532 110.86310944 -73.859375 97.95068359 C-73.86840347 96.87173828 -73.87743195 95.79279297 -73.88673401 94.68115234 C-73.90117776 92.40530136 -73.91010854 90.12940941 -73.91381836 87.85351562 C-73.92565233 84.42552909 -73.9748469 80.99938177 -74.02539062 77.57177734 C-74.20114892 53.89866104 -68.97124339 36.22168842 -52.1328125 18.97412109 C-37.58458537 4.74823283 -19.99817687 -0.09492581 0 0 Z " fill="#4E57F8" transform="translate(91.48828125,24.61181640625)"/>
<path d="M0 0 C11.22 0 22.44 0 34 0 C35 1 35 1 35.12304783 2.80134392 C35.12166514 3.98876025 35.12166514 3.98876025 35.12025452 5.20016479 C35.12162918 6.10593262 35.12300385 7.01170044 35.12442017 7.94491577 C35.11902725 9.4472728 35.11902725 9.4472728 35.11352539 10.97998047 C35.11367142 12.02869324 35.11381744 13.07740601 35.1139679 14.15789795 C35.11326807 17.64434843 35.10547105 21.13074628 35.09765625 24.6171875 C35.09579192 27.02995779 35.09436809 29.44272846 35.09336853 31.85549927 C35.08954125 38.22317541 35.07971124 44.59082893 35.06866455 50.95849609 C35.05846716 57.43717138 35.05387126 63.91585027 35.04882812 70.39453125 C35.038563 82.57868781 35.02276516 94.76282945 35.00279331 106.9469738 C35.00050163 108.63131457 35 110.31565768 35 112 C35 112.66 35 113.32 35 114 C34.05125 113.979375 33.1025 113.95875 32.125 113.9375 C29.09333717 113.77448174 29.09333717 113.77448174 27 115 C25.18658158 115.08471364 23.37005839 115.10721083 21.5546875 115.09765625 C19.94013672 115.09282227 19.94013672 115.09282227 18.29296875 115.08789062 C17.16503906 115.07951172 16.03710938 115.07113281 14.875 115.0625 C13.73933594 115.05798828 12.60367188 115.05347656 11.43359375 115.04882812 C8.62234362 115.03701615 5.8111977 115.02054507 3 115 C1.81024205 111.43072615 1.87521845 108.20053028 1.90234375 104.48828125 C1.9037587 103.76005661 1.90517365 103.03183197 1.90663147 102.28153992 C1.91222341 99.95848461 1.92477438 97.63552612 1.9375 95.3125 C1.94251604 93.73632952 1.94707877 92.16015752 1.95117188 90.58398438 C1.9621902 86.72261902 1.97944926 82.86132592 2 79 C1.34 79 0.68 79 0 79 C0 52.93 0 26.86 0 0 Z " fill="#A793FE" transform="translate(162,47)"/>
<path d="M0 0 C0.75728394 0.00202423 1.51456787 0.00404846 2.2947998 0.00613403 C3.06787476 0.00517731 3.84094971 0.00422058 4.63745117 0.00323486 C6.27502524 0.00255313 7.91260199 0.00440697 9.5501709 0.00857544 C12.06536901 0.01392382 14.58038854 0.00863027 17.09558105 0.00222778 C18.68282103 0.00288857 20.2700609 0.00416973 21.8572998 0.00613403 C22.99322571 0.00309769 22.99322571 0.00309769 24.15209961 0 C29.46109849 0.02399522 29.46109849 0.02399522 30.5760498 1.13894653 C30.67105529 3.6033871 30.70162966 6.0396928 30.6895752 8.50442505 C30.68972122 9.27510315 30.68986725 10.04578125 30.6900177 10.83981323 C30.6893184 13.39918792 30.68152526 15.95849074 30.67370605 18.51785278 C30.67184193 20.28762268 30.670418 22.0573931 30.66941833 23.8271637 C30.66559269 28.49446019 30.65576201 33.16172577 30.64471436 37.82901001 C30.63450124 42.58791689 30.62992093 47.34682874 30.62487793 52.10574341 C30.61413978 61.45015806 30.5970628 70.79454973 30.5760498 80.13894653 C26.42032885 81.03254684 22.60141544 81.26796441 18.3416748 81.27175903 C17.32372833 81.27319412 17.32372833 81.27319412 16.28521729 81.2746582 C14.85986233 81.27533552 13.43450422 81.27351268 12.00915527 81.26931763 C9.81914452 81.26392954 7.62933576 81.26929472 5.43933105 81.27566528 C4.05261185 81.27500507 2.66589277 81.2737251 1.2791748 81.27175903 C0.01750488 81.2706311 -1.24416504 81.26950317 -2.54406738 81.26834106 C-5.4239502 81.13894653 -5.4239502 81.13894653 -6.4239502 80.13894653 C-6.52426899 77.67989432 -6.560132 75.24891226 -6.55334473 72.78933716 C-6.55509705 72.02026535 -6.55684937 71.25119354 -6.55865479 70.45881653 C-6.56307359 67.9042539 -6.56013522 65.34975992 -6.5567627 62.79519653 C-6.55743573 61.02782172 -6.55840574 59.260447 -6.55966187 57.49307251 C-6.56113888 53.7840385 -6.55898418 50.07502853 -6.55432129 46.36599731 C-6.548624 41.60072161 -6.55190299 36.83550222 -6.55789375 32.07022858 C-6.56149928 28.41923596 -6.56036082 24.7682568 -6.55776596 21.11726379 C-6.55709667 19.35970554 -6.55792519 17.60214608 -6.56024551 15.84458923 C-6.5627719 13.39254499 -6.55893166 10.94059323 -6.55334473 8.48855591 C-6.55536896 7.75501389 -6.55739319 7.02147186 -6.55947876 6.26570129 C-6.53343648 0.12739653 -6.11110331 0.02762051 0 0 Z " fill="#84AEFE" transform="translate(122.4239501953125,80.86105346679688)"/>
<path d="M0 0 C0.73541016 0.00202423 1.47082031 0.00404846 2.22851562 0.00613403 C2.97939453 0.00517731 3.73027344 0.00422058 4.50390625 0.00323486 C6.09440189 0.00255315 7.6849003 0.00440682 9.27539062 0.00857544 C11.71816217 0.01392386 14.16074984 0.00863019 16.60351562 0.00222778 C18.1451827 0.00288857 19.68684966 0.00416973 21.22851562 0.00613403 C21.96392578 0.0041098 22.69933594 0.00208557 23.45703125 0 C28.61356402 0.02399493 28.61356402 0.02399493 29.72851562 1.13894653 C29.82163452 2.64313393 29.8459759 4.15166009 29.84204102 5.65872192 C29.84196548 6.61964249 29.84188995 7.58056305 29.84181213 8.57060242 C29.83665085 9.61538254 29.83148956 10.66016266 29.82617188 11.73660278 C29.82475693 12.80059799 29.82334198 13.8645932 29.82188416 14.96083069 C29.81626626 18.37439737 29.80371073 21.78789953 29.79101562 25.20144653 C29.78600293 27.5093883 29.78143962 29.81733108 29.77734375 32.12527466 C29.76629102 37.7965208 29.74953549 43.46772906 29.72851562 49.13894653 C24.76229213 49.16359751 19.79610396 49.18178302 14.82983398 49.19387817 C13.13907247 49.19891843 11.44831533 49.20575058 9.75756836 49.21438599 C7.33250856 49.2264651 4.90750619 49.23217776 2.48242188 49.23660278 C1.34179039 49.24434471 1.34179039 49.24434471 0.17811584 49.25224304 C-1.63881008 49.25243891 -3.45561565 49.2009193 -5.27148438 49.13894653 C-6.85830427 47.55212664 -6.39876973 45.92646307 -6.40087891 43.72683716 C-6.40560715 42.32032898 -6.40560715 42.32032898 -6.41043091 40.88540649 C-6.40840668 39.86563721 -6.40638245 38.84586792 -6.40429688 37.79519653 C-6.4052536 36.75576904 -6.40621033 35.71634155 -6.40719604 34.64541626 C-6.407878 32.442901 -6.40602264 30.24038374 -6.40185547 28.03787231 C-6.39650745 24.65354934 -6.40179996 21.26935909 -6.40820312 17.88504028 C-6.40754235 15.7509254 -6.40626119 13.61681061 -6.40429688 11.48269653 C-6.40632111 10.46292725 -6.40834534 9.44315796 -6.41043091 8.39248657 C-6.40727875 7.45481445 -6.40412659 6.51714233 -6.40087891 5.55105591 C-6.40008331 4.72134277 -6.39928772 3.89162964 -6.39846802 3.03677368 C-6.13046801 -0.96860588 -3.37290206 0.01569515 0 0 Z " fill="#51C3FE" transform="translate(77.271484375,112.86105346679688)"/>
<path d="M0 0 C0.33 0.99 0.66 1.98 1 3 C2.11375 3.1546875 2.11375 3.1546875 3.25 3.3125 C6.21804151 4.05451038 7.58725413 5.1904406 10 7 C11.2684375 7.2475 11.2684375 7.2475 12.5625 7.5 C15.34242909 8.07024187 16.30178763 8.76551003 18 11 C18 11.66 18 12.32 18 13 C20.475 13.495 20.475 13.495 23 14 C23 14.66 23 15.32 23 16 C23.928125 16.4640625 23.928125 16.4640625 24.875 16.9375 C26.25 17.625 27.625 18.3125 29 19 C29.25 21.8125 29.25 21.8125 29 25 C27.125 26.875 27.125 26.875 25 28 C24.34 28 23.68 28 23 28 C23 28.66 23 29.32 23 30 C24.02480469 29.97679688 25.04960937 29.95359375 26.10546875 29.9296875 C27.46613851 29.91091964 28.8268162 29.89272053 30.1875 29.875 C30.86103516 29.85824219 31.53457031 29.84148437 32.22851562 29.82421875 C36.2692979 29.78479648 39.42311874 30.05864437 43 32 C44.4375 34.375 44.4375 34.375 45 37 C44.4375 39.1875 44.4375 39.1875 43 41 C38.78780729 43.20414553 34.77720457 43.30217426 30.125 43.25 C29.44308594 43.25773437 28.76117188 43.26546875 28.05859375 43.2734375 C23.35982327 43.25553742 19.4632404 42.46832452 15 41 C14.67 39.02 14.34 37.04 14 35 C9.11370706 37.38632911 4.52318796 39.98454136 0 43 C-2.6875 43.125 -2.6875 43.125 -5 43 C-5 42.34 -5 41.68 -5 41 C-5.66 41 -6.32 41 -7 41 C-9 39 -9 39 -9.5 36.125 C-9 33 -9 33 -6.0625 30.75 C-5.051875 30.1725 -4.04125 29.595 -3 29 C-2.67 28.34 -2.34 27.68 -2 27 C-1.01 27 -0.02 27 1 27 C1.33 26.01 1.66 25.02 2 24 C4.0625 23.3125 4.0625 23.3125 6 23 C6 22.01 6 21.02 6 20 C2.535 18.02 2.535 18.02 -1 16 C-1 15.34 -1 14.68 -1 14 C-1.763125 13.855625 -2.52625 13.71125 -3.3125 13.5625 C-6 13 -6 13 -9 12 C-9.36475519 7.74452281 -8.70540031 5.33666039 -6 2 C-2.8125 0.6875 -2.8125 0.6875 0 0 Z " fill="#6B1DFD" transform="translate(217,60)"/>
<path d="M0 0 C0.99 0 1.98 0 3 0 C3 0.66 3 1.32 3 2 C3.928125 2.0825 4.85625 2.165 5.8125 2.25 C9.48865497 3.11497764 10.06402653 3.90244244 12 7 C12.66 7.33 13.32 7.66 14 8 C14.495 9.485 14.495 9.485 15 11 C14.8453125 9.8553125 14.8453125 9.8553125 14.6875 8.6875 C15 6 15 6 17 4.25 C20.87767704 2.63430123 23.78234353 2.13605343 28 2 C30.25342674 3.38113252 30.77917066 4.29917357 31.5625 6.78515625 C32.06407537 9.32438156 32.09653323 11.66347464 32.0625 14.25 C32.05347656 15.14203125 32.04445312 16.0340625 32.03515625 16.953125 C32.02355469 17.62859375 32.01195312 18.3040625 32 19 C28.191866 21.12547014 25.39689755 22.67644578 21 22 C17.82490412 20.41245206 15.37903094 18.62945525 13 16 C13 16.66 13 17.32 13 18 C10.25 20 10.25 20 7 22 C6.319375 22.474375 5.63875 22.94875 4.9375 23.4375 C3 24 3 24 0.3125 22.75 C-2 21 -2 21 -3 19 C-3.99 18.67 -4.98 18.34 -6 18 C-6.66 17.34 -7.32 16.68 -8 16 C-8.7425 16.94875 -9.485 17.8975 -10.25 18.875 C-14.13094215 23.42618843 -14.13094215 23.42618843 -17 24 C-20.82208069 23.18370732 -24.15372129 22.26941806 -26.375 18.9375 C-26.58125 18.298125 -26.7875 17.65875 -27 17 C-27.66 16.34 -28.32 15.68 -29 15 C-28.45652174 8.91304348 -28.45652174 8.91304348 -27 6 C-26.34 6 -25.68 6 -25 6 C-25 5.34 -25 4.68 -25 4 C-24.01 4 -23.02 4 -22 4 C-21.67 3.34 -21.34 2.68 -21 2 C-18.3125 1.0625 -18.3125 1.0625 -15 1 C-12.01022415 2.73599888 -9.56578291 4.86843418 -8 8 C-7.38125 7.690625 -6.7625 7.38125 -6.125 7.0625 C-4.75 6.375 -3.375 5.6875 -2 5 C-1.27840576 3.35636866 -0.60648579 1.68949614 0 0 Z " fill="#228CFE" transform="translate(81,60)"/>
<path d="M0 0 C0.73541016 0.00202423 1.47082031 0.00404846 2.22851562 0.00613403 C2.97939453 0.00517731 3.73027344 0.00422058 4.50390625 0.00323486 C6.09440189 0.00255315 7.6849003 0.00440682 9.27539062 0.00857544 C11.71816217 0.01392386 14.16074984 0.00863019 16.60351562 0.00222778 C18.1451827 0.00288857 19.68684966 0.00416973 21.22851562 0.00613403 C21.96392578 0.0041098 22.69933594 0.00208557 23.45703125 0 C28.61356402 0.02399493 28.61356402 0.02399493 29.72851562 1.13894653 C29.8159977 3.06562161 29.83548897 4.99546514 29.82617188 6.92410278 C29.82294922 8.093927 29.81972656 9.26375122 29.81640625 10.46902466 C29.80383789 12.31657349 29.80383789 12.31657349 29.79101562 14.20144653 C29.78650391 15.43701294 29.78199219 16.67257935 29.77734375 17.94558716 C29.7655117 21.0100877 29.74902736 24.07449375 29.72851562 27.13894653 C28.73851562 27.13894653 27.74851563 27.13894653 26.72851562 27.13894653 C26.60351562 21.38894653 26.60351562 21.38894653 27.72851562 19.13894653 C26.98601562 19.46894653 26.24351563 19.79894653 25.47851562 20.13894653 C22.72851562 21.13894653 22.72851562 21.13894653 18.72851562 21.13894653 C18.06851563 21.79894653 17.40851563 22.45894653 16.72851562 23.13894653 C14.09439217 24.28715419 11.45502441 25.23011027 8.72851562 26.13894653 C8.72851562 25.47894653 8.72851562 24.81894653 8.72851562 24.13894653 C7.73851563 24.46894653 6.74851562 24.79894653 5.72851562 25.13894653 C2.22500442 24.33605855 0.2550653 23.73570283 -2.14648438 21.01394653 C-2.51773438 20.39519653 -2.88898438 19.77644653 -3.27148438 19.13894653 C-3.60148437 21.77894653 -3.93148437 24.41894653 -4.27148438 27.13894653 C-4.60148437 27.13894653 -4.93148437 27.13894653 -5.27148438 27.13894653 C-6.72562224 7.89758655 -6.72562224 7.89758655 -6.27148438 1.13894653 C-4.53855458 -0.59398326 -2.30934102 0.01074607 0 0 Z " fill="#B0E9FE" transform="translate(77.271484375,112.86105346679688)"/>
<path d="M0 0 C16.00474309 0.35929015 30.32390736 7.18977561 42.03125 17.9375 C48.85368578 25.08481368 59 36.60670209 59 47 C59.66 47.33 60.32 47.66 61 48 C66.23459547 68.74450798 66.536197 101.03484539 56 120 C55.18982422 121.48306641 55.18982422 121.48306641 54.36328125 122.99609375 C44.13859016 141.11664174 28.82406094 152.10445581 9 158 C4.42871709 158.92687902 0.0943882 159.12137102 -4.56591797 159.11352539 C-5.6645089 159.11374443 -5.6645089 159.11374443 -6.78529358 159.1139679 C-9.18762249 159.1132755 -11.58987226 159.10551482 -13.9921875 159.09765625 C-15.66513018 159.09578968 -17.33807342 159.0943669 -19.01101685 159.09336853 C-23.40040615 159.08956219 -27.78976203 159.07974808 -32.17913818 159.06866455 C-36.66369169 159.05840985 -41.14825063 159.05386223 -45.6328125 159.04882812 C-54.42189029 159.03812403 -63.21094098 159.02107035 -72 159 C-70 157 -70 157 -67.15344238 156.77294922 C-65.93813843 156.78342285 -64.72283447 156.79389648 -63.47070312 156.8046875 C-62.80062729 156.80760803 -62.13055145 156.81052856 -61.44017029 156.8135376 C-59.98380088 156.82115456 -58.52745009 156.83339303 -57.07115173 156.84967041 C-54.76846619 156.87514141 -52.4660103 156.88821368 -50.16320801 156.89794922 C-44.44419534 156.92472917 -38.72540105 156.97315653 -33.00653076 157.02075195 C-28.1751785 157.06014023 -23.34390668 157.09145147 -18.51243591 157.11187744 C-16.23995581 157.12487868 -13.96780512 157.14989416 -11.69543457 157.17529297 C-10.30672497 157.18255606 -8.91801228 157.18925977 -7.52929688 157.1953125 C-6.31399292 157.20578613 -5.09868896 157.21625977 -3.84655762 157.22705078 C-0.86662344 157.29905377 -0.86662344 157.29905377 1 155 C3.98754884 154.65137909 6.95209673 154.55712423 9.95703125 154.44140625 C13.32509356 153.95284265 15.17511594 152.83569907 18 151 C21.3125 150.3125 21.3125 150.3125 24 150 C24 149.01 24 148.02 24 147 C25.98 147 27.96 147 30 147 C30.99 143.04 30.99 143.04 32 139 C34.64 139 37.28 139 40 139 C40.226875 138.46375 40.45375 137.9275 40.6875 137.375 C42 135 42 135 44.5625 131.9375 C47.13537799 129.19794312 47.13537799 129.19794312 48 126 C48.45375 125.566875 48.9075 125.13375 49.375 124.6875 C51.56297877 122.4153682 52.64680888 119.82939962 54 117 C54.33 116.67 54.66 116.34 55 116 C55.36760731 113.67182036 55.70241581 111.3381615 56 109 C56.66 109 57.32 109 58 109 C59.16945256 100.02491569 59.15225964 91.11146792 59.13037109 82.07739258 C59.12500551 79.44020864 59.13034461 76.80319443 59.13671875 74.16601562 C59.13605797 72.4635413 59.13477682 70.76106707 59.1328125 69.05859375 C59.13584885 67.89571083 59.13584885 67.89571083 59.13894653 66.70933533 C59.11659378 61.40612787 58.65784389 56.26307778 58 51 C57.34 51 56.68 51 56 51 C55.95101562 50.34773438 55.90203125 49.69546875 55.8515625 49.0234375 C55.43097558 44.10692147 54.99450776 39.57563545 53 35 C52.34 34.67 51.68 34.34 51 34 C48.64978855 32.07709972 47.65556297 30.35863449 46.1875 27.625 C44.06679118 23.75062812 41.45348674 21.71870232 38 19 C37 17.66666667 36 16.33333333 35 15 C34.01 14.67 33.02 14.34 32 14 C32 13.34 32 12.68 32 12 C28.08936776 10.52952664 28.08936776 10.52952664 24 10 C23.62875 9.54625 23.2575 9.0925 22.875 8.625 C19.95058137 6.09050386 16.75598184 5.80045515 13 5 C13 4.34 13 3.68 13 3 C12.39671875 3.03480469 11.7934375 3.06960937 11.171875 3.10546875 C10.37265625 3.13253906 9.5734375 3.15960937 8.75 3.1875 C7.96109375 3.22230469 7.1721875 3.25710937 6.359375 3.29296875 C3.48287032 2.93578688 2.15423231 1.88248282 0 0 Z " fill="#5916D1" transform="translate(216,25)"/>
<path d="M0 0 C1.63898036 0.00306772 3.27796335 0.00493612 4.91694641 0.00567627 C8.32827971 0.01024379 11.73937227 0.02453259 15.15063477 0.046875 C19.49768071 0.07522175 23.84453887 0.08609819 28.19166851 0.0905571 C32.37780253 0.09573805 36.56389084 0.11024309 40.75 0.125 C41.53412451 0.12688072 42.31824902 0.12876144 43.12613487 0.13069916 C51.3652965 0.15624823 59.48517414 0.31564889 67.67578125 1.328125 C64.99732717 4.00657908 62.96658969 3.56644778 59.32633972 3.58036804 C58.45552261 3.57318253 57.58470551 3.56599701 56.6875 3.55859375 C55.79215042 3.55813553 54.89680084 3.55767731 53.97431946 3.5572052 C52.0770231 3.55418049 50.17972927 3.5462877 48.2824707 3.53393555 C45.38548929 3.5157643 42.48882914 3.5134253 39.59179688 3.51367188 C37.74869517 3.50875325 35.90559562 3.50292344 34.0625 3.49609375 C32.76538338 3.49442451 32.76538338 3.49442451 31.44206238 3.49272156 C27.37287573 3.46082937 23.65792609 3.25521002 19.67578125 2.328125 C17.14453688 2.42018621 17.14453688 2.42018621 14.55078125 2.765625 C6.7699721 3.57415712 -0.60855628 3.67836593 -8.32421875 2.328125 C-9.31421875 2.658125 -10.30421875 2.988125 -11.32421875 3.328125 C-14.84050824 3.60027026 -18.35657275 3.773476 -21.87890625 3.94921875 C-25.12936017 4.30669497 -27.38200149 4.96747504 -30.32421875 6.328125 C-30.9790625 6.5859375 -31.63390625 6.84375 -32.30859375 7.109375 C-35.99644291 8.4077349 -35.99644291 8.4077349 -38.32421875 11.328125 C-39.68015356 11.91589073 -41.05993708 12.44921606 -42.44921875 12.953125 C-47.05712478 14.91440146 -49.54460382 17.38160492 -52.63671875 21.25390625 C-54.29053358 23.28672031 -56.04343649 25.03323956 -57.94921875 26.828125 C-63.78951954 32.62922914 -66.79716158 38.97409732 -69.4296875 46.71484375 C-70.55573094 50.0044641 -71.76853705 53.2167616 -73.32421875 56.328125 C-73.13859375 57.1325 -72.95296875 57.936875 -72.76171875 58.765625 C-72.32421875 61.328125 -72.32421875 61.328125 -74.32421875 64.328125 C-74.60268155 66.54542217 -74.60268155 66.54542217 -74.51171875 68.890625 C-74.50205078 70.06818359 -74.50205078 70.06818359 -74.4921875 71.26953125 C-74.44785964 73.39167172 -74.44785964 73.39167172 -73.32421875 75.328125 C-73.98421875 75.328125 -74.64421875 75.328125 -75.32421875 75.328125 C-75.16824219 76.08738281 -75.01226562 76.84664063 -74.8515625 77.62890625 C-74.55958984 79.11970703 -74.55958984 79.11970703 -74.26171875 80.640625 C-73.96587891 82.11982422 -73.96587891 82.11982422 -73.6640625 83.62890625 C-73.32421875 86.328125 -73.32421875 86.328125 -74.32421875 89.328125 C-73.99421875 90.318125 -73.66421875 91.308125 -73.32421875 92.328125 C-73.48921875 93.2975 -73.65421875 94.266875 -73.82421875 95.265625 C-74.30936207 98.23712784 -74.07182596 99.52459796 -73.32421875 102.328125 C-73.76171875 104.578125 -73.76171875 104.578125 -74.32421875 106.328125 C-73.66421875 106.328125 -73.00421875 106.328125 -72.32421875 106.328125 C-72.35902344 106.99199219 -72.39382812 107.65585938 -72.4296875 108.33984375 C-72.5933269 113.67760519 -72.51301814 116.86380586 -69.32421875 121.328125 C-68.63671875 124.140625 -68.63671875 124.140625 -68.32421875 126.328125 C-69.31421875 126.328125 -70.30421875 126.328125 -71.32421875 126.328125 C-71.97385898 124.43359279 -72.6187699 122.53743851 -73.26171875 120.640625 C-73.80119141 119.05701172 -73.80119141 119.05701172 -74.3515625 117.44140625 C-75.72916967 113.03195679 -76.44669538 108.96644332 -76.51708984 104.34863281 C-76.53315277 103.38282288 -76.5492157 102.41701294 -76.56576538 101.42193604 C-76.61087226 96.97970683 -76.65135022 92.53762083 -76.67431641 88.09521484 C-76.69076658 85.77186998 -76.71790883 83.44857338 -76.75634766 81.12548828 C-77.15530499 56.8376595 -73.51490527 38.5265336 -56.38549805 20.36523438 C-40.66497783 4.26274046 -21.89380141 -0.18167445 0 0 Z " fill="#4AB7FB" transform="translate(94.32421875,24.671875)"/>
<path d="M0 0 C3.80242621 0.46542684 6.6048601 1.68567405 9.90625 3.58203125 C10.81503906 4.10216797 11.72382813 4.62230469 12.66015625 5.15820312 C13.59730469 5.70412109 14.53445312 6.25003906 15.5 6.8125 C16.90572266 7.61397461 16.90572266 7.61397461 18.33984375 8.43164062 C22.82676939 11.01878285 27.08534406 13.57467606 31 17 C30.8984375 18.73046875 30.8984375 18.73046875 30 21 C27.89306421 22.60542572 25.88539938 23.96205475 23.625 25.3125 C22.3488754 26.10012607 21.07283478 26.88788821 19.796875 27.67578125 C19.15814453 28.06459473 18.51941406 28.4534082 17.86132812 28.85400391 C14.29173241 31.05175867 10.80864806 33.38702741 7.3046875 35.6875 C5.1329498 36.92428622 3.46750508 37.66111518 1 38 C0.34 37.67 -0.32 37.34 -1 37 C-1.625 33.9375 -1.625 33.9375 -1 30 C2.00898217 27.13938973 5.42939724 25.09364806 9 23 C10.10021484 22.34257813 10.10021484 22.34257813 11.22265625 21.671875 C12.79880995 20.75272171 14.39687662 19.8712627 16 19 C12.03239399 15.56140813 7.73307933 12.9864597 3.20703125 10.3671875 C1 9 1 9 -1 7 C-1.1875 3.9375 -1.1875 3.9375 -1 1 C-0.67 0.67 -0.34 0.34 0 0 Z " fill="#F8F7FD" transform="translate(213,63)"/>
<path d="M0 0 C1.5 1.375 1.5 1.375 3 3 C3 3.66 3 4.32 3 5 C4.65 5 6.3 5 8 5 C8.20625 5.825 8.4125 6.65 8.625 7.5 C11.605743 15.08734583 15.84223167 19.35358972 23 23 C24 24 25 25 26 26 C28.10332891 26.71447643 28.10332891 26.71447643 30 27 C30 27.66 30 28.32 30 29 C31.010625 29.12375 32.02125 29.2475 33.0625 29.375 C37 30 37 30 40.375 31 C44.57821816 32.15950846 48.66770252 32.62669546 53 33 C54.01719864 36.16765214 54.09916277 36.77334225 52.6875 40 C51.75888858 41.65086475 50.82610268 43.29948983 49.875 44.9375 C48.83505782 47.08977102 48.83505782 47.08977102 48.75 50 C48.10169161 55.80935169 44.72056832 60.9332535 42 66 C44.97 65.505 44.97 65.505 48 65 C48.33 63.68 48.66 62.36 49 61 C50.11375 60.731875 51.2275 60.46375 52.375 60.1875 C56.21840951 59.34190981 56.21840951 59.34190981 58 56 C60.625 55.8125 60.625 55.8125 63 56 C63 55.01 63 54.02 63 53 C63.63808594 52.89042969 64.27617188 52.78085938 64.93359375 52.66796875 C65.75988281 52.50941406 66.58617188 52.35085937 67.4375 52.1875 C68.26121094 52.03667969 69.08492188 51.88585937 69.93359375 51.73046875 C70.61550781 51.48941406 71.29742187 51.24835938 72 51 C72.33 50.01 72.66 49.02 73 48 C74.32 48 75.64 48 77 48 C77.33 47.01 77.66 46.02 78 45 C80.03125 43.90234375 80.03125 43.90234375 82.5 42.9375 C85.96056812 41.77297997 85.96056812 41.77297997 88 39 C91.0318856 37.11813998 92.24517355 37 96 37 C96 36.34 96 35.68 96 35 C104.26036503 31.04190842 111.97202451 30.83350045 121 31 C121 31.33 121 31.66 121 32 C154.66 32.495 154.66 32.495 189 33 C189 33.33 189 33.66 189 34 C187.97445511 33.97477768 186.94891022 33.94955536 185.89228821 33.92356873 C176.08573918 33.69402848 166.28153305 33.55925 156.47237873 33.51034451 C151.43223707 33.48235507 146.39667815 33.42437814 141.3581543 33.2902832 C115.5594625 32.62976205 97.00443962 34.13648618 75.96342468 49.85566711 C71.17562767 53.32011507 66.06321623 56.19599462 60.9375 59.125 C59.17927704 60.16246775 57.42248656 61.20237225 55.66796875 62.24609375 C50.81744193 65.1148535 45.94108223 67.93681 41.046875 70.73046875 C38.88325065 71.96461048 38.88325065 71.96461048 37 74 C36.01 73.01 36.01 73.01 35 72 C35.59780273 71.15743652 36.19560547 70.31487305 36.81152344 69.44677734 C39.04732549 66.08717441 40.53709421 62.61217341 42.015625 58.8515625 C42.27631775 58.19417084 42.5370105 57.53677917 42.80560303 56.85946655 C43.62698458 54.78383654 44.43862885 52.70456066 45.25 50.625 C45.8092533 49.20677771 46.36914325 47.7888063 46.9296875 46.37109375 C48.29382566 42.91693015 49.64926552 39.45943051 51 36 C50.34773438 35.87592773 49.69546875 35.75185547 49.0234375 35.62402344 C28.93908488 31.72120123 14.54297381 23.27823109 2.49609375 6.48046875 C1.14358704 4.23806207 0.43533179 2.55831972 0 0 Z " fill="#353DCC" transform="translate(24,151)"/>
<path d="M0 0 C2.14924681 -0.01197284 4.29568722 -0.06128996 6.44433594 -0.11157227 C7.81671787 -0.12103 9.18911727 -0.12826814 10.56152344 -0.13305664 C12.42091553 -0.15323853 12.42091553 -0.15323853 14.31787109 -0.17382812 C17.52246094 0.42553711 17.52246094 0.42553711 19.9309082 2.54174805 C21.84712149 6.01380071 21.99762539 8.17273533 21.94824219 12.12475586 C21.93567383 14.06318359 21.93567383 14.06318359 21.92285156 16.04077148 C21.89362982 17.39819498 21.86433249 18.75561685 21.83496094 20.11303711 C21.82345406 21.45091389 21.8136735 22.78880669 21.80566406 24.12670898 C21.72406298 31.27567356 21.41633404 38.33022244 20.52246094 45.42553711 C21.51246094 45.92053711 21.51246094 45.92053711 22.52246094 46.42553711 C20.21169308 52.02002771 20.21169308 52.02002771 17.51074219 53.60913086 C13.28024317 54.76491425 9.26190481 54.67825061 4.89746094 54.61303711 C4.00679932 54.6058667 3.1161377 54.59869629 2.19848633 54.59130859 C-13.5617019 54.39748283 -13.5617019 54.39748283 -19.47753906 52.42553711 C-19.47753906 35.92553711 -19.47753906 19.42553711 -19.47753906 2.42553711 C-12.7825923 0.19388819 -6.93993242 0.01833009 0 0 Z M-17.47753906 3.42553711 C-17.57576651 4.89359003 -17.60552276 6.36631171 -17.60693359 7.83764648 C-17.61008575 8.7753186 -17.61323792 9.71299072 -17.6164856 10.67907715 C-17.61446136 11.69884644 -17.61243713 12.71861572 -17.61035156 13.76928711 C-17.61130829 14.8087146 -17.61226501 15.84814209 -17.61325073 16.91906738 C-17.61393269 19.12158265 -17.61207733 21.3240999 -17.60791016 23.52661133 C-17.60256214 26.9109343 -17.60785465 30.29512455 -17.61425781 33.67944336 C-17.61359703 35.81355824 -17.61231588 37.94767303 -17.61035156 40.08178711 C-17.61237579 41.1015564 -17.61440002 42.12132568 -17.6164856 43.17199707 C-17.61333344 44.10966919 -17.61018127 45.04734131 -17.60693359 46.01342773 C-17.606138 46.84314087 -17.60534241 47.672854 -17.60452271 48.52770996 C-17.68596458 50.43655235 -17.68596458 50.43655235 -16.47753906 51.42553711 C-13.88394585 51.5140524 -11.31714215 51.54079656 -8.72363281 51.52319336 C-7.94818619 51.52177841 -7.17273956 51.52036346 -6.37379456 51.51890564 C-3.88750412 51.51329056 -1.40130246 51.50073557 1.08496094 51.48803711 C2.76660027 51.48302405 4.448241 51.47846081 6.12988281 51.47436523 C10.2607766 51.46331624 14.3916037 51.44604156 18.52246094 51.42553711 C18.54772984 44.60791817 18.56529338 37.79031121 18.57739258 30.97265625 C18.58243427 28.6513626 18.58926745 26.33007214 18.59790039 24.00878906 C18.60997318 20.68024916 18.61569073 17.35175109 18.62011719 14.02319336 C18.62527847 12.97841324 18.63043976 11.93363312 18.63575745 10.85719299 C18.63583298 9.89627243 18.63590851 8.93535187 18.63598633 7.9453125 C18.63820694 7.09481827 18.64042755 6.24432404 18.64271545 5.36805725 C18.73726378 3.41965166 18.73726378 3.41965166 17.52246094 2.42553711 C15.0132194 2.32466499 12.5320971 2.28581679 10.02246094 2.29272461 C9.27158203 2.29176788 8.52070312 2.29081116 7.74707031 2.28982544 C6.15657467 2.28914373 4.56607626 2.29099739 2.97558594 2.29516602 C0.53281439 2.30051444 -1.90977328 2.29522077 -4.35253906 2.28881836 C-5.89420614 2.28947914 -7.4358731 2.29076031 -8.97753906 2.29272461 C-9.71294922 2.29070038 -10.44835937 2.28867615 -11.20605469 2.28659058 C-14.63000248 1.99497198 -14.63000248 1.99497198 -17.47753906 3.42553711 Z " fill="#195DFD" transform="translate(88.4775390625,110.574462890625)"/>
<path d="M0 0 C16.00474309 0.35929015 30.32390736 7.18977561 42.03125 17.9375 C48.85368578 25.08481368 59 36.60670209 59 47 C59.99 47.495 59.99 47.495 61 48 C63.62805119 58.41486952 63.18842614 69.51930347 63.1875 80.1875 C63.18885956 81.22526581 63.18885956 81.22526581 63.19024658 82.28399658 C63.18837243 94.94837993 63.18837243 94.94837993 62 100 C61.34 100 60.68 100 60 100 C60 101.65 60 103.3 60 105 C59.67 105 59.34 105 59 105 C59.00523682 103.68394775 59.01047363 102.36789551 59.01586914 101.01196289 C59.03406264 96.09741911 59.04548418 91.18287828 59.05493164 86.26831055 C59.05993918 84.14721169 59.06674715 82.02611625 59.07543945 79.9050293 C59.08766252 76.84422967 59.09326425 73.78347596 59.09765625 70.72265625 C59.10281754 69.78478775 59.10797882 68.84691925 59.11329651 67.88063049 C59.11377539 62.17284072 58.73018382 56.66208285 58 51 C57.34 51 56.68 51 56 51 C55.95101562 50.34773438 55.90203125 49.69546875 55.8515625 49.0234375 C55.43097558 44.10692147 54.99450776 39.57563545 53 35 C52.01 34.505 52.01 34.505 51 34 C48.64978855 32.07709972 47.65556297 30.35863449 46.1875 27.625 C44.06679118 23.75062812 41.45348674 21.71870232 38 19 C37 17.66666667 36 16.33333333 35 15 C34.01 14.67 33.02 14.34 32 14 C32 13.34 32 12.68 32 12 C28.08936776 10.52952664 28.08936776 10.52952664 24 10 C23.62875 9.54625 23.2575 9.0925 22.875 8.625 C19.95058137 6.09050386 16.75598184 5.80045515 13 5 C13 4.34 13 3.68 13 3 C12.09507812 3.05220703 12.09507812 3.05220703 11.171875 3.10546875 C10.37265625 3.13253906 9.5734375 3.15960937 8.75 3.1875 C7.96109375 3.22230469 7.1721875 3.25710937 6.359375 3.29296875 C3.48287032 2.93578688 2.15423231 1.88248282 0 0 Z " fill="#7C1BDD" transform="translate(216,25)"/>
<path d="M0 0 C0.33 0 0.66 0 1 0 C1.33 26.07 1.66 52.14 2 79 C13.55 79 25.1 79 37 79 C37.33 52.93 37.66 26.86 38 0 C38.33 0 38.66 0 39 0 C39.17217834 5.22900138 39.33824569 10.45816769 39.5 15.6875 C39.53601318 16.84523926 39.53601318 16.84523926 39.57275391 18.02636719 C39.89025848 28.38090422 40.11186387 38.72030932 39.96289062 49.08081055 C39.80253182 53.17105427 39.80253182 53.17105427 41 57 C40.91036938 58.69141656 40.75422324 60.37959602 40.5625 62.0625 C40.10042414 66.41514053 39.97564004 70.56431358 40.2578125 74.9296875 C39.87694467 77.98817163 38.93019732 79.59262858 37 82 C33.80126953 82.59936523 33.80126953 82.59936523 29.8828125 82.55859375 C28.84155716 82.55509666 28.84155716 82.55509666 27.77926636 82.55152893 C26.31154082 82.541793 24.84385282 82.52000847 23.37646484 82.48706055 C21.13972791 82.4378242 18.90519767 82.42559011 16.66796875 82.41992188 C10.57871823 82.35983817 5.75619525 82.3024781 0 80 C0 53.6 0 27.2 0 0 Z " fill="#222AF1" transform="translate(115,82)"/>
<path d="M0 0 C3.65005579 0.69894685 4.79314611 1.54452045 6.9375 4.5625 C8.11340974 8.24701718 8.27231338 9.84504275 6.625 13.375 C4.9375 15.5625 4.9375 15.5625 2.9375 16.5625 C-0.89864957 16.91769903 -3.20879634 17.10974594 -6.5 15 C-8.69271887 11.57935857 -8.69257693 9.55298721 -8.0625 5.5625 C-5.58756641 2.14126827 -4.17986219 0.76772979 0 0 Z " fill="#F4FBFE" transform="translate(63.0625,63.4375)"/>
<path d="M0 0 C2.81972931 2.36493426 2.97850831 3.8280665 3.4375 7.5 C3 11 3 11 1.4375 13.4375 C-1.91852406 15.58879747 -4.08421671 15.48947291 -8 15 C-10.375 13.9375 -10.375 13.9375 -12 12 C-13 8.625 -13 8.625 -13 5 C-9.2639274 -0.92618413 -6.74205685 -1.53766209 0 0 Z " fill="#F4F9FE" transform="translate(110,65)"/>
<path d="M0 0 C3.32878632 2.46040728 4.79301948 3.89610387 5.5625 8 C4.84909176 11.80484394 3.9236459 13.4511805 1 16 C-3.44071826 16.80740332 -5.26790056 16.50331836 -9 13.9375 C-11 11 -11 11 -11.0625 7.4375 C-9.19906968 1.40875485 -6.4635332 -1.18717957 0 0 Z " fill="#F3F9FE" transform="translate(87,64)"/>
<path d="M0 0 C4.96628434 -0.02290956 9.93238663 -0.04283643 14.89868164 -0.05493164 C16.58944316 -0.0599719 18.28020029 -0.06680405 19.97094727 -0.07543945 C22.39600707 -0.08751857 24.82100944 -0.09323123 27.24609375 -0.09765625 C28.38672523 -0.10539818 28.38672523 -0.10539818 29.55039978 -0.11329651 C31.3673257 -0.11349238 33.18413127 -0.06197277 35 0 C36 1 36 1 36.11352539 4.23461914 C36.11336631 5.66814126 36.10767407 7.10166912 36.09765625 8.53515625 C36.0962413 9.28840683 36.09482635 10.04165741 36.09336853 10.81773376 C36.08775376 13.2326956 36.07519883 15.64756601 36.0625 18.0625 C36.0574869 19.69596221 36.05292366 21.32942586 36.04882812 22.96289062 C36.03777954 26.97529585 36.02050506 30.98763241 36 35 C35.34 35 34.68 35 34 35 C33.12842148 24.30759925 32.88186457 13.72407184 33 3 C31.27185839 2.80327635 29.54240803 2.61803201 27.8125 2.4375 C26.84957031 2.33308594 25.88664062 2.22867188 24.89453125 2.12109375 C22.01691461 2.00070763 19.80868785 2.43157508 17 3 C14.38518042 3.06774144 11.80020744 3.09500258 9.1875 3.0625 C8.49462891 3.05798828 7.80175781 3.05347656 7.08789062 3.04882812 C5.39188932 3.03713156 3.69593297 3.01919924 2 3 C2.08378906 3.77085938 2.16757813 4.54171875 2.25390625 5.3359375 C2.35574219 6.33882813 2.45757812 7.34171875 2.5625 8.375 C2.66691406 9.37273437 2.77132812 10.37046875 2.87890625 11.3984375 C3 14 3 14 2 16 C1.77049681 18.204364 1.58924067 20.41392173 1.4375 22.625 C1.35371094 23.81351563 1.26992187 25.00203125 1.18359375 26.2265625 C1.12300781 27.14179687 1.06242187 28.05703125 1 29 C0.67 29 0.34 29 0 29 C0 19.43 0 9.86 0 0 Z " fill="#E1EFFD" transform="translate(117,81)"/>
<path d="M0 0 C0.99 0.495 0.99 0.495 2 1 C2.78390417 17.38509202 3.1864635 33.74162599 3.18530273 50.14550781 C3.18753831 53.68566094 3.20593898 57.22552455 3.22460938 60.765625 C3.22753612 63.04426979 3.22952571 65.32291602 3.23046875 67.6015625 C3.23765427 68.64631744 3.24483978 69.69107239 3.25224304 70.76748657 C3.23504318 76.24548915 2.82997344 80.82421681 1 86 C0.67 86 0.34 86 0 86 C0 57.62 0 29.24 0 0 Z " fill="#5825FE" transform="translate(197,47)"/>
<path d="M0 0 C9.0845389 -0.02326015 18.16906741 -0.04098439 27.25362968 -0.05181217 C31.47280816 -0.05701125 35.69196613 -0.06405432 39.91113281 -0.07543945 C43.9895256 -0.08637475 48.06789876 -0.0922992 52.14630508 -0.09487724 C53.6954695 -0.09671243 55.24463294 -0.10029576 56.79378891 -0.10573006 C64.92506989 -0.1330967 72.91536699 -0.00622693 81 1 C78.32154592 3.67845408 76.29080844 3.23832278 72.65055847 3.25224304 C71.77974136 3.24505753 70.90892426 3.23787201 70.01171875 3.23046875 C69.11636917 3.23001053 68.22101959 3.22955231 67.29853821 3.2290802 C65.40124185 3.22605549 63.50394802 3.2181627 61.60668945 3.20581055 C58.70970804 3.1876393 55.81304789 3.1853003 52.91601562 3.18554688 C51.07291392 3.18062825 49.22981437 3.17479844 47.38671875 3.16796875 C46.08960213 3.16629951 46.08960213 3.16629951 44.76628113 3.16459656 C40.69709448 3.13270437 36.98214484 2.92708502 33 2 C30.46875563 2.09206121 30.46875563 2.09206121 27.875 2.4375 C18.21918553 3.42120228 9.49990145 3.05800573 0 1 C0 0.67 0 0.34 0 0 Z " fill="#4A8CF9" transform="translate(81,25)"/>
<path d="M0 0 C3.97915159 -0.02886984 7.95827653 -0.04675406 11.9375 -0.0625 C13.07380859 -0.07087891 14.21011719 -0.07925781 15.38085938 -0.08789062 C16.46044922 -0.09111328 17.54003906 -0.09433594 18.65234375 -0.09765625 C20.15269165 -0.10551147 20.15269165 -0.10551147 21.68334961 -0.11352539 C24 0 24 0 25 1 C25.125 3.5 25.125 3.5 25 6 C23.31483046 7.68516954 21.21232212 7.13008019 18.90625 7.1328125 C17.87628906 7.13410156 16.84632813 7.13539062 15.78515625 7.13671875 C14.15900391 7.13091797 14.15900391 7.13091797 12.5 7.125 C11.41589844 7.12886719 10.33179688 7.13273437 9.21484375 7.13671875 C8.18488281 7.13542969 7.15492188 7.13414063 6.09375 7.1328125 C5.14177734 7.13168457 4.18980469 7.13055664 3.20898438 7.12939453 C1 7 1 7 0 6 C-0.04080783 4.00041636 -0.04254356 1.99954746 0 0 Z " fill="#F9F9FE" transform="translate(234,93)"/>
<path d="M0 0 C0.99 0 1.98 0 3 0 C3 0.66 3 1.32 3 2 C3.928125 2.0825 4.85625 2.165 5.8125 2.25 C9.48865497 3.11497764 10.06402653 3.90244244 12 7 C12.66 7.33 13.32 7.66 14 8 C14.33 8.99 14.66 9.98 15 11 C14.896875 10.236875 14.79375 9.47375 14.6875 8.6875 C15 6 15 6 17 4.25 C20.87767704 2.63430123 23.78234353 2.13605343 28 2 C30 3.4375 30 3.4375 31 5 C30.67 5.66 30.34 6.32 30 7 C29.01 6.34 28.02 5.68 27 5 C23.31743715 5.1315201 20.90251763 5.26670443 18 7.625 C16.54668083 11.07663304 17.07395051 13.42809484 18 17 C21.71013399 19.47342266 23.61060262 19.38503486 28 19 C30.40083438 17.64114884 30.40083438 17.64114884 32 16 C31.8125 17.875 31.8125 17.875 31 20 C27.66143789 21.85475673 24.7843079 22.47303849 21 22 C17.82490412 20.41245206 15.37903094 18.62945525 13 16 C13 16.66 13 17.32 13 18 C10.00893216 20.36503039 7.97138418 21.91553181 4.125 22.25 C3.42375 22.1675 2.7225 22.085 2 22 C2.99 21.34 3.98 20.68 5 20 C8.96899529 16.69308939 8.96899529 16.69308939 10.5625 11.9375 C10.1781341 8.9616416 10.1781341 8.9616416 8.5 6.625 C4.86748926 4.26386802 2.28156703 4.7145622 -2 5 C-1.34 3.35 -0.68 1.7 0 0 Z " fill="#1F76FE" transform="translate(81,60)"/>
<path d="M0 0 C0.33 0 0.66 0 1 0 C1.33 15.18 1.66 30.36 2 46 C13.55 46.33 25.1 46.66 37 47 C37 42.38 37 37.76 37 33 C37.66 33 38.32 33 39 33 C39 35.64 39 38.28 39 41 C39.99 41.495 39.99 41.495 41 42 C38.68923214 47.5944906 38.68923214 47.5944906 35.98828125 49.18359375 C31.75791299 50.33934142 27.73934989 50.25312323 23.375 50.1875 C22.48506348 50.17960449 21.59512695 50.17170898 20.67822266 50.16357422 C2.93388452 49.93388452 2.93388452 49.93388452 0 47 C-0.24050903 44.97518921 -0.24050903 44.97518921 -0.22705078 42.45849609 C-0.22689972 41.51767181 -0.22674866 40.57684753 -0.22659302 39.60751343 C-0.21627045 38.58976837 -0.20594788 37.57202332 -0.1953125 36.5234375 C-0.1924826 35.48305328 -0.18965271 34.44266907 -0.18673706 33.37075806 C-0.17551704 30.03872306 -0.15040915 26.70695414 -0.125 23.375 C-0.11497256 21.11979554 -0.1058463 18.86458688 -0.09765625 16.609375 C-0.07557178 11.07282546 -0.04207639 5.53643173 0 0 Z " fill="#143BF4" transform="translate(70,115)"/>
<path d="M0 0 C1.5 1.375 1.5 1.375 3 3 C3 3.66 3 4.32 3 5 C4.65 5 6.3 5 8 5 C8.20625 5.825 8.4125 6.65 8.625 7.5 C11.605743 15.08734583 15.84223167 19.35358972 23 23 C24 24 25 25 26 26 C28.10332891 26.71447643 28.10332891 26.71447643 30 27 C30 27.66 30 28.32 30 29 C31.010625 29.12375 32.02125 29.2475 33.0625 29.375 C37 30 37 30 40.375 31 C44.57821816 32.15950846 48.66770252 32.62669546 53 33 C54.0432589 36.22019247 54.09818914 36.781306 52.625 40.0625 C52.08875 41.031875 51.5525 42.00125 51 43 C50.67 43.99 50.34 44.98 50 46 C49.34 45.34 48.68 44.68 48 44 C48.99 41.36 49.98 38.72 51 36 C50.41734375 35.90203125 49.8346875 35.8040625 49.234375 35.703125 C29.10482403 32.03169746 14.48545246 23.19802526 2.49609375 6.48046875 C1.14358704 4.23806207 0.43533179 2.55831972 0 0 Z " fill="#2B50DD" transform="translate(24,151)"/>
<path d="M0 0 C4.82380802 -0.0246519 9.64757967 -0.04283693 14.47143555 -0.05493164 C16.11369464 -0.05997174 17.75594923 -0.06680378 19.39819336 -0.07543945 C21.75375479 -0.08751926 24.10925709 -0.09323139 26.46484375 -0.09765625 C27.20339096 -0.10281754 27.94193817 -0.10797882 28.7028656 -0.11329651 C30.46898088 -0.1134925 32.23497146 -0.06194719 34 0 C35 1 35 1 35.11352539 3.50024414 C35.10828857 4.58426514 35.10305176 5.66828613 35.09765625 6.78515625 C35.09443359 7.95498047 35.09121094 9.12480469 35.08789062 10.33007812 C35.07532227 12.17762695 35.07532227 12.17762695 35.0625 14.0625 C35.05798828 15.29806641 35.05347656 16.53363281 35.04882812 17.80664062 C35.03699608 20.87114117 35.02051173 23.93554721 35 27 C34.67 27 34.34 27 34 27 C33.34 19.41 32.68 11.82 32 4 C21.44 4 10.88 4 0 4 C0 2.68 0 1.36 0 0 Z " fill="#F1FCFE" transform="translate(72,113)"/>
<path d="M0 0 C0.33 0.66 0.66 1.32 1 2 C2.89533342 2.46523063 2.89533342 2.46523063 5.0625 2.625 C6.361875 2.74875 7.66125 2.8725 9 3 C9 3.33 9 3.66 9 4 C5.7 4.33 2.4 4.66 -1 5 C-1 6.98 -1 8.96 -1 11 C6.92 11.33 14.84 11.66 23 12 C20 15 20 15 16.234375 15.36328125 C14.73948808 15.36195364 13.24454636 15.34443475 11.75 15.3125 C10.64205078 15.31733398 10.64205078 15.31733398 9.51171875 15.32226562 C4.66002308 15.27520332 0.60384141 14.52852407 -4 13 C-4.33 11.02 -4.66 9.04 -5 7 C-11.40798782 9.87719006 -11.40798782 9.87719006 -17 14 C-18.99958364 14.04080783 -21.00045254 14.04254356 -23 14 C-20.7977209 11.7977209 -18.75121486 10.70376694 -16 9.25 C-10.56022689 6.33249949 -5.26487356 3.22059511 0 0 Z " fill="#6A0DFD" transform="translate(236,88)"/>
<path d="M0 0 C1.37579827 2.66211372 2.37063561 5.06296616 3 8 C2.34 8 1.68 8 1 8 C1.15597656 8.75925781 1.31195312 9.51851562 1.47265625 10.30078125 C1.66730469 11.29464844 1.86195312 12.28851563 2.0625 13.3125 C2.25972656 14.29863281 2.45695312 15.28476563 2.66015625 16.30078125 C3 19 3 19 2 22 C2.33 22.99 2.66 23.98 3 25 C2.835 25.969375 2.67 26.93875 2.5 27.9375 C2.01485668 30.90900284 2.25239279 32.19647296 3 35 C2.5625 37.25 2.5625 37.25 2 39 C2.66 39 3.32 39 4 39 C3.96519531 39.66386719 3.93039063 40.32773438 3.89453125 41.01171875 C3.73089185 46.34948019 3.81120061 49.53568086 7 54 C7.6875 56.8125 7.6875 56.8125 8 59 C7.01 59 6.02 59 5 59 C4.35035977 57.10546779 3.70544885 55.20931351 3.0625 53.3125 C2.52302734 51.72888672 2.52302734 51.72888672 1.97265625 50.11328125 C0.08368711 44.06706275 -0.13401868 38.61484827 -0.09765625 32.32421875 C-0.0962413 31.3990596 -0.09482635 30.47390045 -0.09336853 29.52070618 C-0.08778715 26.57627073 -0.07523805 23.63191233 -0.0625 20.6875 C-0.05748259 18.68685006 -0.05292011 16.68619892 -0.04882812 14.68554688 C-0.03782381 9.79033506 -0.02057198 4.89518058 0 0 Z " fill="#3D98FA" transform="translate(18,92)"/>
<path d="M0 0 C0.99 0 1.98 0 3 0 C3.0499429 4.92552258 3.0859729 9.85089336 3.10986328 14.77661133 C3.11983703 16.44753593 3.1334209 18.11844347 3.15087891 19.78930664 C3.24523751 29.06142735 3.24555014 37.93045844 1 47 C0.67 47 0.34 47 0 47 C0 31.49 0 15.98 0 0 Z " fill="#F3F6FE" transform="translate(162,47)"/>
<path d="M0 0 C18.12747304 0.40694327 33.02789224 9.05465347 45.6015625 21.59765625 C47.82788984 24.02920371 48.95196153 25.5580461 49.3125 28.875 C49.209375 29.57625 49.10625 30.2775 49 31 C48.443125 30.278125 47.88625 29.55625 47.3125 28.8125 C45.06422758 25.98533386 45.06422758 25.98533386 42.5625 23.5625 C40.66212322 21.66212322 39.03502198 19.83873636 37.375 17.75 C35.23003634 14.79262734 35.23003634 14.79262734 32 14 C32 13.34 32 12.68 32 12 C28.08936776 10.52952664 28.08936776 10.52952664 24 10 C23.62875 9.54625 23.2575 9.0925 22.875 8.625 C19.95058137 6.09050386 16.75598184 5.80045515 13 5 C13 4.34 13 3.68 13 3 C12.09507812 3.05220703 12.09507812 3.05220703 11.171875 3.10546875 C10.37265625 3.13253906 9.5734375 3.15960937 8.75 3.1875 C7.96109375 3.22230469 7.1721875 3.25710937 6.359375 3.29296875 C3.48287032 2.93578688 2.15423231 1.88248282 0 0 Z " fill="#7836E7" transform="translate(216,25)"/>
<path d="M0 0 C0.99 0.66 1.98 1.32 3 2 C2.01 2.33 1.02 2.66 0 3 C0 3.66 0 4.32 0 5 C1.02480469 4.97679688 2.04960937 4.95359375 3.10546875 4.9296875 C4.46613851 4.91091964 5.8268162 4.89272053 7.1875 4.875 C8.19780273 4.84986328 8.19780273 4.84986328 9.22851562 4.82421875 C13.2692979 4.78479648 16.42311874 5.05864437 20 7 C21.4375 9.375 21.4375 9.375 22 12 C21.125 14.3125 21.125 14.3125 20 16 C19.34 15.34 18.68 14.68 18 14 C18 12.35 18 10.7 18 9 C6.615 8.505 6.615 8.505 -5 8 C-5 7.01 -5 6.02 -5 5 C-4.34 5 -3.68 5 -3 5 C-3 4.01 -3 3.02 -3 2 C-2.01 1.34 -1.02 0.68 0 0 Z " fill="#801FFD" transform="translate(240,85)"/>
<path d="M0 0 C0.33 0 0.66 0 1 0 C1.33 7.26 1.66 14.52 2 22 C2.33 22 2.66 22 3 22 C3 31.24 3 40.48 3 50 C2.01 50 1.02 50 0 50 C0 33.5 0 17 0 0 Z " fill="#408CFD" transform="translate(116,111)"/>
<path d="M0 0 C0.66 0.33 1.32 0.66 2 1 C1.01 2.485 1.01 2.485 0 4 C-0.50014953 6.45741537 -0.50014953 6.45741537 0 9 C2.08316314 11.77755085 3.38671849 12.83274141 6.75 13.75 C7.4925 13.8325 8.235 13.915 9 14 C8.67 15.32 8.34 16.64 8 18 C2.125 15.25 2.125 15.25 1 13 C0.01 12.67 -0.98 12.34 -2 12 C-2.66 11.34 -3.32 10.68 -4 10 C-4.7425 10.94875 -5.485 11.8975 -6.25 12.875 C-9.88509324 17.1961531 -9.88509324 17.1961531 -13 18 C-15.25 17.125 -15.25 17.125 -17 16 C-15.88625 15.87625 -15.88625 15.87625 -14.75 15.75 C-11.29620385 14.8080556 -10.22682299 13.80148699 -8 11 C-6.95530866 8.96797292 -5.98622267 6.90814117 -5.015625 4.83984375 C-3.74820147 2.54385728 -2.26580957 1.29474832 0 0 Z " fill="#2C85FE" transform="translate(77,66)"/>
<path d="M0 0 C1.56071552 3.12143105 0.9286118 5.76644107 0 9 C-1.83762891 13.08872432 -3.87982008 17.05140804 -6 21 C-5.34 21.33 -4.68 21.66 -4 22 C-6.97 25.465 -6.97 25.465 -10 29 C-10.99 28.34 -11.98 27.68 -13 27 C-12.13955078 25.83404297 -12.13955078 25.83404297 -11.26171875 24.64453125 C-8.37261199 20.31150776 -6.6628722 15.5304066 -4.8125 10.6875 C-4.11285142 8.87806401 -3.41114092 7.06942346 -2.70703125 5.26171875 C-2.4025708 4.46725342 -2.09811035 3.67278809 -1.78442383 2.85424805 C-1 1 -1 1 0 0 Z " fill="#2C4CD9" transform="translate(72,196)"/>
<path d="M0 0 C0.33 0 0.66 0 1 0 C1.33 4.95 1.66 9.9 2 15 C2.33 15 2.66 15 3 15 C3.16903281 17.54152902 3.33529427 20.08318988 3.5 22.625 C3.54769531 23.33785156 3.59539062 24.05070312 3.64453125 24.78515625 C3.90654442 28.86507561 4.05162256 32.90891219 4 37 C3.34 37 2.68 37 2 37 C2 38.65 2 40.3 2 42 C1.67 42 1.34 42 1 42 C0.11162713 32.54238446 -0.12493919 23.18306055 -0.0625 13.6875 C-0.05746607 12.34961108 -0.05290657 11.0117203 -0.04882812 9.67382812 C-0.03718676 6.44916915 -0.02083703 3.2246104 0 0 Z " fill="#9DC3FE" transform="translate(116,82)"/>
<path d="M0 0 C7.26 0 14.52 0 22 0 C20 2 20 2 18.12060547 2.22705078 C17.37697754 2.21657715 16.63334961 2.20610352 15.8671875 2.1953125 C14.65869141 2.18564453 14.65869141 2.18564453 13.42578125 2.17578125 C12.58402344 2.15902344 11.74226562 2.14226562 10.875 2.125 C9.60076172 2.11146484 9.60076172 2.11146484 8.30078125 2.09765625 C6.20040116 2.07405647 4.10016556 2.03818483 2 2 C2.08378906 2.77085938 2.16757813 3.54171875 2.25390625 4.3359375 C2.35574219 5.33882813 2.45757812 6.34171875 2.5625 7.375 C2.66691406 8.37273437 2.77132812 9.37046875 2.87890625 10.3984375 C3 13 3 13 2 15 C1.77049681 17.204364 1.58924067 19.41392173 1.4375 21.625 C1.35371094 22.81351563 1.26992187 24.00203125 1.18359375 25.2265625 C1.12300781 26.14179687 1.06242187 27.05703125 1 28 C0.67 28 0.34 28 0 28 C0 18.76 0 9.52 0 0 Z " fill="#EFF9FD" transform="translate(117,82)"/>
<path d="M0 0 C1.5 1.375 1.5 1.375 3 3 C3 3.66 3 4.32 3 5 C4.65 5 6.3 5 8 5 C8.20625 5.825 8.4125 6.65 8.625 7.5 C10.92904805 13.36484958 14.12951134 18.27987836 19.8125 21.25 C23 23 23 23 23.69921875 25.109375 C23.84810547 26.04523438 23.84810547 26.04523438 24 27 C13.44085892 20.54719156 5.90853266 12.96771375 0 2 C0 1.34 0 0.68 0 0 Z " fill="#2B64E8" transform="translate(24,151)"/>
<path d="M0 0 C0.66 0.33 1.32 0.66 2 1 C2.05804281 5.41661151 2.09361104 9.83312496 2.125 14.25 C2.15013672 16.13138672 2.15013672 16.13138672 2.17578125 18.05078125 C2.18222656 19.25605469 2.18867188 20.46132812 2.1953125 21.703125 C2.20578613 22.81333008 2.21625977 23.92353516 2.22705078 25.06738281 C2.00468334 27.93950942 1.49281575 29.57223735 0 32 C-1.88319268 30.11680732 -1.13054285 26.88069863 -1.1328125 24.375 C-1.13376923 23.71290527 -1.13472595 23.05081055 -1.13571167 22.36865234 C-1.13639326 20.96647039 -1.13454042 19.5642853 -1.13037109 18.16210938 C-1.12502246 16.00904287 -1.1303167 13.85618498 -1.13671875 11.703125 C-1.13605796 10.34374954 -1.13477679 8.9843742 -1.1328125 7.625 C-1.13168457 6.37976563 -1.13055664 5.13453125 -1.12939453 3.8515625 C-1 1 -1 1 0 0 Z " fill="#5C4DFD" transform="translate(163,125)"/>
<path d="M0 0 C-9.4596842 4.99645115 -17.1774724 8.51535846 -28 8 C-27.67 7.01 -27.34 6.02 -27 5 C-25.78763672 4.94392578 -25.78763672 4.94392578 -24.55078125 4.88671875 C-23.48214844 4.82097656 -22.41351563 4.75523437 -21.3125 4.6875 C-20.25675781 4.62949219 -19.20101562 4.57148438 -18.11328125 4.51171875 C-14.7291671 3.95548418 -12.84994916 2.84823435 -10 1 C-2.96726505 -1.48363252 -2.96726505 -1.48363252 0 0 Z " fill="#5D16C9" transform="translate(244,175)"/>
<path d="M0 0 C0.33 0.99 0.66 1.98 1 3 C1.66 3.33 2.32 3.66 3 4 C3.33 4.66 3.66 5.32 4 6 C6.11846285 6.68729254 6.11846285 6.68729254 8.5625 7.125 C9.80193359 7.37636719 9.80193359 7.37636719 11.06640625 7.6328125 C11.70449219 7.75398437 12.34257813 7.87515625 13 8 C12.67 8.99 12.34 9.98 12 11 C10.56359829 11.19573608 9.12580496 11.38127816 7.6875 11.5625 C6.88699219 11.66691406 6.08648437 11.77132812 5.26171875 11.87890625 C3 12 3 12 0 11 C0 7.37 0 3.74 0 0 Z " fill="#7CD8FF" transform="translate(73,129)"/>
<path d="M0 0 C-0.33 0.66 -0.66 1.32 -1 2 C-2.68826291 2.07220244 -4.37807751 2.13176114 -6.06787109 2.12524414 C-15.05250777 2.12420928 -20.8538476 4.40330501 -28.3046875 9.28515625 C-31 11 -31 11 -33 11 C-33 10.01 -33 9.02 -33 8 C-29.91190305 6.23537317 -28.76687864 6 -25 6 C-25 5.34 -25 4.68 -25 4 C-16.73963497 0.04190842 -9.02797549 -0.16649955 0 0 Z " fill="#3030CB" transform="translate(145,182)"/>
<path d="M0 0 C0.66 0 1.32 0 2 0 C2 9.57 2 19.14 2 29 C1.34 29 0.68 29 0 29 C-0.75406186 19.20879681 -1.22598899 9.78905055 0 0 Z " fill="#4582FD" transform="translate(151,132)"/>
<path d="M0 0 C4.46182436 1.31074365 7.99618757 3.07066011 11.875 5.625 C12.84179688 6.25664063 13.80859375 6.88828125 14.8046875 7.5390625 C15.52914062 8.02117187 16.25359375 8.50328125 17 9 C12.75 13.46428571 12.75 13.46428571 9 14 C9.66 12.68 10.32 11.36 11 10 C8.51047079 7.33264727 6.36591866 5.44253657 3 4 C3 3.34 3 2.68 3 2 C2.01 1.67 1.02 1.34 0 1 C0 0.67 0 0.34 0 0 Z " fill="#6419FC" transform="translate(213,72)"/>
<path d="M0 0 C0.33 0 0.66 0 1 0 C1.495 3.465 1.495 3.465 2 7 C-9.55 7 -21.1 7 -33 7 C-33 6.67 -33 6.34 -33 6 C-22.77 6 -12.54 6 -2 6 C-1.34 4.02 -0.68 2.04 0 0 Z " fill="#37CAFE" transform="translate(105,155)"/>
<path d="M0 0 C0.33 0 0.66 0 1 0 C1.19538118 9.86674975 1.38222795 19.34346884 -1 29 C-1.33 29 -1.66 29 -2 29 C-2 23.39 -2 17.78 -2 12 C-1.34 12 -0.68 12 0 12 C0 8.04 0 4.08 0 0 Z " fill="#D3D3FE" transform="translate(164,65)"/>
<path d="M0 0 C3.63 0 7.26 0 11 0 C11 8.25 11 16.5 11 25 C10.67 25 10.34 25 10 25 C9.34 17.41 8.68 9.82 8 2 C5.69 2 3.38 2 1 2 C0.67 1.34 0.34 0.68 0 0 Z " fill="#DBF9FE" transform="translate(96,115)"/>
<path d="M0 0 C1.32 0 2.64 0 4 0 C4 0.66 4 1.32 4 2 C5.65 2.33 7.3 2.66 9 3 C9 3.66 9 4.32 9 5 C9.928125 5.4640625 9.928125 5.4640625 10.875 5.9375 C12.25 6.625 13.625 7.3125 15 8 C15 9.98 15 11.96 15 14 C13.35 14.33 11.7 14.66 10 15 C10.66 14.01 11.32 13.02 12 12 C12.10761175 9.96041685 12.10761175 9.96041685 11 8 C8.47392641 6.02239466 8.47392641 6.02239466 5.4375 4.3125 C3.61351826 3.22740513 1.7975772 2.12829805 0 1 C0 0.67 0 0.34 0 0 Z " fill="#6D13FD" transform="translate(231,71)"/>
<path d="M0 0 C1.32 1.32 2.64 2.64 4 4 C3.67 4.66 3.34 5.32 3 6 C2.84876169 7.5195764 2.75118307 9.04472502 2.68359375 10.5703125 C2.64169922 11.46621094 2.59980469 12.36210938 2.55664062 13.28515625 C2.49766602 14.69087891 2.49766602 14.69087891 2.4375 16.125 C2.39431641 17.06988281 2.35113281 18.01476562 2.30664062 18.98828125 C2.20040928 21.32537092 2.09836824 23.6625683 2 26 C1.67 26 1.34 26 1 26 C0.34344611 17.31238511 -0.16311941 8.71782637 0 0 Z " fill="#BAF0FE" transform="translate(71,114)"/>
<path d="M0 0 C0.99 0.495 0.99 0.495 2 1 C3.25433458 4.76300374 3.10695422 8.27210909 3.0625 12.1875 C3.05798828 12.93708984 3.05347656 13.68667969 3.04882812 14.45898438 C3.03706354 16.30602383 3.01912865 18.15302213 3 20 C2.34 20 1.68 20 1 20 C0.8312461 17.60429729 0.66493164 15.20846637 0.5 12.8125 C0.45230469 12.13896484 0.40460938 11.46542969 0.35546875 10.77148438 C0.10976179 7.17363248 -0.05601984 3.60627694 0 0 Z " fill="#C2D9FD" transform="translate(150,96)"/>
<path d="M0 0 C0.99 0 1.98 0 3 0 C3 6.93 3 13.86 3 21 C2.67 21 2.34 21 2 21 C1.67 16.71 1.34 12.42 1 8 C0.67 8 0.34 8 0 8 C0 5.36 0 2.72 0 0 Z " fill="#5FDAFE" transform="translate(104,140)"/>
<path d="M0 0 C0.33 0 0.66 0 1 0 C1.10957031 0.59167969 1.21914063 1.18335938 1.33203125 1.79296875 C2.27400671 6.48752939 3.40021866 9.93077704 6 14 C6.6875 16.8125 6.6875 16.8125 7 19 C6.01 19 5.02 19 4 19 C-0.59225513 6.51480638 -0.59225513 6.51480638 0 0 Z " fill="#3483F1" transform="translate(19,132)"/>
<path d="M0 0 C6.25107435 0.42954941 12.04204521 1.01401507 18 3 C18 3.99 18 4.98 18 6 C15.525 5.505 15.525 5.505 13 5 C13 4.34 13 3.68 13 3 C12.09507812 3.05220703 12.09507812 3.05220703 11.171875 3.10546875 C10.37265625 3.13253906 9.5734375 3.15960937 8.75 3.1875 C7.96109375 3.22230469 7.1721875 3.25710937 6.359375 3.29296875 C3.48287032 2.93578688 2.15423231 1.88248282 0 0 Z " fill="#754EF1" transform="translate(216,25)"/>
<path d="M0 0 C0.66 0.33 1.32 0.66 2 1 C2 5.29 2 9.58 2 14 C1.01 13.67 0.02 13.34 -1 13 C-1.02686553 11.02090602 -1.04633375 9.04171029 -1.0625 7.0625 C-1.07410156 5.96035156 -1.08570313 4.85820312 -1.09765625 3.72265625 C-1 1 -1 1 0 0 Z " fill="#7C67FF" transform="translate(163,125)"/>
<path d="M0 0 C1.0209375 0.7425 1.0209375 0.7425 2.0625 1.5 C5.68707015 3.35084433 7.97508528 3.43908161 12 3 C14.40083438 1.64114884 14.40083438 1.64114884 16 0 C15.8125 1.875 15.8125 1.875 15 4 C11.66143789 5.85475673 8.7843079 6.47303849 5 6 C2.1875 4.6875 2.1875 4.6875 0 3 C0 2.01 0 1.02 0 0 Z " fill="#1663FE" transform="translate(97,76)"/>
<path d="M0 0 C0.66 0 1.32 0 2 0 C0.66958425 10.15317287 0.66958425 10.15317287 -2.125 13.6875 C-2.74375 14.120625 -3.3625 14.55375 -4 15 C-4 13.02 -4 11.04 -4 9 C-3.34 9 -2.68 9 -2 9 C-2 7.68 -2 6.36 -2 5 C-1.34 5 -0.68 5 0 5 C0 3.35 0 1.7 0 0 Z " fill="#7B10E1" transform="translate(276,125)"/>
<path d="M0 0 C2.66248083 2.66248083 2.71832705 4.26783345 3 8 C2.0625 11.875 2.0625 11.875 1 15 C0.67 15 0.34 15 0 15 C0 10.05 0 5.1 0 0 Z " fill="#5912F8" transform="translate(197,118)"/>
<path d="M0 0 C2.77579761 2.77579761 2.86061387 5.30306937 3.625 9.125 C3.88539063 10.40632813 4.14578125 11.68765625 4.4140625 13.0078125 C4.60742188 13.99523437 4.80078125 14.98265625 5 16 C4.34 16.33 3.68 16.66 3 17 C2.67 14.03 2.34 11.06 2 8 C1.34 8 0.68 8 0 8 C0 5.36 0 2.72 0 0 Z " fill="#9827FC" transform="translate(272,68)"/>
<path d="M0 0 C1.5 1.375 1.5 1.375 3 3 C3 3.66 3 4.32 3 5 C4.65 5 6.3 5 8 5 C8 6.65 8 8.3 8 10 C6.25 9.9375 6.25 9.9375 4 9 C1.99159505 6.29950956 0 3.44873267 0 0 Z " fill="#2D72ED" transform="translate(24,151)"/>
<path d="M0 0 C0.99 0 1.98 0 3 0 C3.66 2.31 4.32 4.62 5 7 C2 7 2 7 -1 6 C-1.042721 4.33388095 -1.04063832 2.66617115 -1 1 C-0.67 0.67 -0.34 0.34 0 0 Z " fill="#7538FE" transform="translate(209,66)"/>
<path d="M0 0 C0 0.99 0 1.98 0 3 C-3.81756824 4.37432457 -7.07255329 3.67975039 -11 3 C-10.67 2.34 -10.34 1.68 -10 1 C-7.71484375 0.5859375 -7.71484375 0.5859375 -4.9375 0.375 C-4.01839844 0.30023438 -3.09929687 0.22546875 -2.15234375 0.1484375 C-1.44207031 0.09945312 -0.73179688 0.05046875 0 0 Z " fill="#1D34ED" transform="translate(107,161)"/>
<path d="M0 0 C3.9298688 1.6626368 6.95703183 4.0261902 10 7 C10.375 9.8125 10.375 9.8125 10 12 C9.443125 11.278125 8.88625 10.55625 8.3125 9.8125 C6.02680364 6.93981825 6.02680364 6.93981825 3.3125 4.3125 C1 2 1 2 0 0 Z " fill="#822BEC" transform="translate(255,44)"/>
<path d="M0 0 C3.3 0 6.6 0 10 0 C9.01 1.485 9.01 1.485 8 3 C5.8359375 3.29296875 5.8359375 3.29296875 3.375 3.1875 C2.55773437 3.16042969 1.74046875 3.13335937 0.8984375 3.10546875 C0.27195313 3.07066406 -0.35453125 3.03585938 -1 3 C-0.67 2.01 -0.34 1.02 0 0 Z " fill="#6418D6" transform="translate(217,180)"/>
<path d="M0 0 C1.4835001 0.42257276 2.96176424 0.86356322 4.4375 1.3125 C5.67306641 1.67794922 5.67306641 1.67794922 6.93359375 2.05078125 C7.61550781 2.36402344 8.29742187 2.67726563 9 3 C9.33 3.99 9.66 4.98 10 6 C9.01 6.33 8.02 6.66 7 7 C1.26229508 3.78688525 1.26229508 3.78688525 0 0 Z " fill="#7221FE" transform="translate(223,65)"/>
<path d="M0 0 C1.60080151 4.00200378 0.29279692 7.04556236 -1 11 C-1.33 11 -1.66 11 -2 11 C-2.05399736 9.54207116 -2.09279177 8.08357288 -2.125 6.625 C-2.15980469 5.40683594 -2.15980469 5.40683594 -2.1953125 4.1640625 C-2 2 -2 2 0 0 Z " fill="#9280FF" transform="translate(164,115)"/>
<path d="M0 0 C1.77706209 2.66559313 2.87548273 5.0280615 4 8 C1 8 1 8 -1 7 C-1.04254356 5.00045254 -1.04080783 2.99958364 -1 1 C-0.67 0.67 -0.34 0.34 0 0 Z " fill="#3281FE" transform="translate(94,68)"/>
<path d="M0 0 C1.5625 1 1.5625 1 3 3 C2.96726452 5.76614782 2.49404328 8.26030547 2 11 C-0.67927341 6.98108988 -0.15601248 4.75838077 0 0 Z " fill="#6A57FF" transform="translate(162,138)"/>
<path d="M0 0 C0.33 0.66 0.66 1.32 1 2 C1.66 2.33 2.32 2.66 3 3 C1.35 4.32 -0.3 5.64 -2 7 C-2.66 6.34 -3.32 5.68 -4 5 C-2.68 3.35 -1.36 1.7 0 0 Z " fill="#3350BA" transform="translate(63,218)"/>
<path d="M0 0 C0.66 1.32 1.32 2.64 2 4 C1.34 3.67 0.68 3.34 0 3 C0 2.01 0 1.02 0 0 Z " fill="#4591F0" transform="translate(19,144)"/>
<path d="M0 0 C4 1 4 1 4 1 Z " fill="#483FCE" transform="translate(168,186)"/>
<path d="M0 0 C1 4 1 4 1 4 Z " fill="#4793F0" transform="translate(18,140)"/>
<path d="M0 0 C0.33 0.66 0.66 1.32 1 2 C0.34 1.67 -0.32 1.34 -1 1 C-0.67 0.67 -0.34 0.34 0 0 Z " fill="#5FB1F2" transform="translate(77,21)"/>
<path d="M0 0 C2 1 2 1 2 1 Z " fill="#4143D1" transform="translate(146,186)"/>
<path d="M0 0 C2 1 2 1 2 1 Z " fill="#3F48D4" transform="translate(136,186)"/>
<path d="" fill="#4486E9" transform="translate(0,0)"/>
<path d="" fill="#732FD4" transform="translate(0,0)"/>
<path d="M0 0 C2 1 2 1 2 1 Z " fill="#7670EB" transform="translate(215,23)"/>
<path d="" fill="#3D5AC9" transform="translate(0,0)"/>
<path d="" fill="#3C5ACC" transform="translate(0,0)"/>
<path d="" fill="#3B50D6" transform="translate(0,0)"/>
<path d="" fill="#5539CD" transform="translate(0,0)"/>
<path d="" fill="#4D3ED2" transform="translate(0,0)"/>
<path d="" fill="#3F48D4" transform="translate(0,0)"/>
<path d="" fill="#3968E5" transform="translate(0,0)"/>
<path d="" fill="#6535C8" transform="translate(0,0)"/>
<path d="" fill="#3B74E4" transform="translate(0,0)"/>
<path d="" fill="#3D77E5" transform="translate(0,0)"/>
<path d="" fill="#3F80E9" transform="translate(0,0)"/>
<path d="" fill="#4181E8" transform="translate(0,0)"/>
<path d="" fill="#4082EA" transform="translate(0,0)"/>
<path d="" fill="#4385EC" transform="translate(0,0)"/>
<path d="" fill="#722ED4" transform="translate(0,0)"/>
<path d="" fill="#4891EC" transform="translate(0,0)"/>
<path d="" fill="#7630D2" transform="translate(0,0)"/>
<path d="" fill="#4D97F1" transform="translate(0,0)"/>
<path d="" fill="#7333D3" transform="translate(0,0)"/>
<path d="" fill="#7832D6" transform="translate(0,0)"/>
<path d="" fill="#5BBAF6" transform="translate(0,0)"/>
<path d="" fill="#5ABAF7" transform="translate(0,0)"/>
<path d="" fill="#8247DD" transform="translate(0,0)"/>
<path d="" fill="#7F46DC" transform="translate(0,0)"/>
<path d="" fill="#8347DD" transform="translate(0,0)"/>
<path d="" fill="#8250E1" transform="translate(0,0)"/>
<path d="" fill="#5FBDF3" transform="translate(0,0)"/>
<path d="" fill="#60C0F4" transform="translate(0,0)"/>
<path d="" fill="#7E5EEA" transform="translate(0,0)"/>
<path d="" fill="#7176ED" transform="translate(0,0)"/>
<path d="" fill="#6B7EEE" transform="translate(0,0)"/>
<path d="" fill="#6781EF" transform="translate(0,0)"/>
<path d="" fill="#638BEE" transform="translate(0,0)"/>
<path d="" fill="#638FF3" transform="translate(0,0)"/>
<path d="" fill="#5EB1F4" transform="translate(0,0)"/>
<path d="" fill="#776BE7" transform="translate(0,0)"/>
<path d="" fill="#5B9FF2" transform="translate(0,0)"/>
<path d="" fill="#59ACF6" transform="translate(0,0)"/>
</svg>
